<svg width="102" height="28" viewBox="0 0 102 28" fill="none" xmlns="http://www.w3.org/2000/svg">
<path d="M17.7227 10.1838C17.7227 11.6487 17.5527 12.9143 17.2129 13.9807C16.8848 15.0354 16.3633 15.9084 15.6484 16.5999C14.9453 17.2913 14.0371 17.8069 12.9238 18.1467C11.8223 18.4749 10.498 18.6389 8.95117 18.6389H5.01367V26.5315H0.917969V2.20337H9.0918C10.4746 2.20337 11.6992 2.34985 12.7656 2.64282C13.8438 2.92407 14.7461 3.3811 15.4727 4.01392C16.2109 4.64673 16.7676 5.4729 17.1426 6.49243C17.5293 7.50024 17.7227 8.73071 17.7227 10.1838ZM13.4512 10.219C13.4512 9.34009 13.3281 8.61938 13.082 8.05688C12.8477 7.48267 12.502 7.03149 12.0449 6.70337C11.5879 6.37524 11.0195 6.14673 10.3398 6.01782C9.67188 5.88892 8.9043 5.82446 8.03711 5.82446H5.01367V15.0178H7.58008C8.61133 15.0178 9.49609 14.9651 10.2344 14.8596C10.9844 14.7542 11.5938 14.5374 12.0625 14.2092C12.543 13.8694 12.8945 13.3831 13.1172 12.7502C13.3398 12.1174 13.4512 11.2737 13.4512 10.219ZM24.8945 18.1116C24.9062 19.0374 25 19.8577 25.1758 20.5725C25.3633 21.2756 25.6504 21.8674 26.0371 22.3479C26.4238 22.8167 26.9219 23.1741 27.5312 23.4202C28.1523 23.6663 28.9141 23.7893 29.8164 23.7893C30.6602 23.7893 31.4043 23.6487 32.0488 23.3674C32.7051 23.0745 33.3086 22.5823 33.8594 21.8909L36.7598 23.8596C36.4082 24.387 36.0156 24.8499 35.582 25.2483C35.1484 25.6467 34.6445 25.9807 34.0703 26.2502C33.4961 26.5198 32.8398 26.7249 32.1016 26.8655C31.375 27.0061 30.543 27.0764 29.6055 27.0764C26.6641 27.0764 24.4902 26.2678 23.084 24.6506C21.6895 23.0217 20.9922 20.6252 20.9922 17.4612C20.9922 15.9729 21.1387 14.6252 21.4316 13.4182C21.7363 12.1995 22.2168 11.1565 22.873 10.2893C23.541 9.42212 24.4082 8.75415 25.4746 8.2854C26.541 7.80493 27.8477 7.5647 29.3945 7.5647C30.7656 7.5647 31.9316 7.76978 32.8926 8.17993C33.8652 8.59009 34.6562 9.17017 35.2656 9.92017C35.875 10.6702 36.3203 11.5725 36.6016 12.6272C36.8828 13.6819 37.0234 14.8479 37.0234 16.1252V18.1116H24.8945ZM33.2793 15.3342C33.2793 13.7991 32.957 12.6331 32.3125 11.8362C31.668 11.0276 30.6543 10.6233 29.2715 10.6233C28.5684 10.6233 27.9648 10.7288 27.4609 10.9397C26.9688 11.1389 26.5527 11.4377 26.2129 11.8362C25.8848 12.2346 25.6211 12.7268 25.4219 13.3127C25.2227 13.8987 25.0703 14.5725 24.9648 15.3342H33.2793ZM51.7363 26.5315L47.7812 20.0803L43.6855 26.5315H39.4668L45.6895 17.426L39.5371 8.09204H44.0371L47.9922 14.5081L52.0703 8.09204H56.3066L50.084 17.2151L56.3066 26.5315H51.7363ZM62.5469 18.1116C62.5586 19.0374 62.6523 19.8577 62.8281 20.5725C63.0156 21.2756 63.3027 21.8674 63.6895 22.3479C64.0762 22.8167 64.5742 23.1741 65.1836 23.4202C65.8047 23.6663 66.5664 23.7893 67.4688 23.7893C68.3125 23.7893 69.0566 23.6487 69.7012 23.3674C70.3574 23.0745 70.9609 22.5823 71.5117 21.8909L74.4121 23.8596C74.0605 24.387 73.668 24.8499 73.2344 25.2483C72.8008 25.6467 72.2969 25.9807 71.7227 26.2502C71.1484 26.5198 70.4922 26.7249 69.7539 26.8655C69.0273 27.0061 68.1953 27.0764 67.2578 27.0764C64.3164 27.0764 62.1426 26.2678 60.7363 24.6506C59.3418 23.0217 58.6445 20.6252 58.6445 17.4612C58.6445 15.9729 58.791 14.6252 59.084 13.4182C59.3887 12.1995 59.8691 11.1565 60.5254 10.2893C61.1934 9.42212 62.0605 8.75415 63.127 8.2854C64.1934 7.80493 65.5 7.5647 67.0469 7.5647C68.418 7.5647 69.584 7.76978 70.5449 8.17993C71.5176 8.59009 72.3086 9.17017 72.918 9.92017C73.5273 10.6702 73.9727 11.5725 74.2539 12.6272C74.5352 13.6819 74.6758 14.8479 74.6758 16.1252V18.1116H62.5469ZM70.9316 15.3342C70.9316 13.7991 70.6094 12.6331 69.9648 11.8362C69.3203 11.0276 68.3066 10.6233 66.9238 10.6233C66.2207 10.6233 65.6172 10.7288 65.1133 10.9397C64.6211 11.1389 64.2051 11.4377 63.8652 11.8362C63.5371 12.2346 63.2734 12.7268 63.0742 13.3127C62.875 13.8987 62.7227 14.5725 62.6172 15.3342H70.9316ZM79.2109 26.5315V0.357666H82.9902V26.5315H79.2109ZM101.939 21.4163C101.939 22.4358 101.74 23.303 101.342 24.0178C100.955 24.7327 100.428 25.3186 99.7598 25.7756C99.1035 26.2327 98.3418 26.5608 97.4746 26.76C96.6074 26.9709 95.6992 27.0764 94.75 27.0764C93.7891 27.0764 92.916 26.9944 92.1309 26.8303C91.3574 26.6663 90.666 26.4436 90.0566 26.1624C89.4473 25.8694 88.9199 25.5237 88.4746 25.1252C88.041 24.7268 87.6836 24.2932 87.4023 23.8245L90.2852 21.8909C90.7891 22.6292 91.4102 23.1565 92.1484 23.4729C92.8867 23.7893 93.7188 23.9475 94.6445 23.9475C95.1016 23.9475 95.5469 23.9124 95.9805 23.842C96.4141 23.7717 96.7949 23.6487 97.123 23.4729C97.4629 23.2854 97.7324 23.0393 97.9316 22.7346C98.1426 22.4299 98.248 22.0491 98.248 21.592C98.248 21.2405 98.1719 20.9417 98.0195 20.6956C97.8672 20.4495 97.627 20.2327 97.2988 20.0452C96.9707 19.8459 96.543 19.6643 96.0156 19.5002C95.5 19.3245 94.873 19.1487 94.1348 18.9729C93.3027 18.762 92.5059 18.5217 91.7441 18.2522C90.9824 17.9827 90.3086 17.6311 89.7227 17.1975C89.1484 16.7522 88.6855 16.2014 88.334 15.5452C87.9824 14.8772 87.8066 14.051 87.8066 13.0667C87.8066 12.2815 87.9531 11.5549 88.2461 10.887C88.5391 10.219 88.9785 9.63892 89.5645 9.14673C90.1621 8.65454 90.8945 8.26782 91.7617 7.98657C92.6406 7.70532 93.6602 7.5647 94.8203 7.5647C95.6289 7.5647 96.3848 7.64087 97.0879 7.79321C97.8027 7.94556 98.4473 8.16235 99.0215 8.4436C99.6074 8.72485 100.123 9.0647 100.568 9.46313C101.014 9.84985 101.377 10.2834 101.658 10.7639L98.7754 12.7151C98.5996 12.4573 98.3887 12.2053 98.1426 11.9592C97.8965 11.7131 97.6035 11.4963 97.2637 11.3088C96.9355 11.1213 96.5605 10.9749 96.1387 10.8694C95.7285 10.7522 95.2656 10.6936 94.75 10.6936C93.7656 10.6936 92.9805 10.887 92.3945 11.2737C91.8086 11.6487 91.5156 12.1995 91.5156 12.926C91.5156 13.2659 91.5742 13.553 91.6914 13.7874C91.8203 14.0217 92.0195 14.2327 92.2891 14.4202C92.5703 14.6077 92.9336 14.7776 93.3789 14.9299C93.8242 15.0706 94.3633 15.217 94.9961 15.3694C96.0625 15.6389 97.0234 15.926 97.8789 16.2307C98.7461 16.5354 99.4785 16.9104 100.076 17.3557C100.674 17.801 101.131 18.3518 101.447 19.0081C101.775 19.6526 101.939 20.4553 101.939 21.4163Z" fill="white"/>
</svg>
